<svg xmlns="http://www.w3.org/2000/svg" x="0px" y="0px"
width="18" height="18"
viewBox="0 0 30 30"
style=" fill:#000000;">    <path d="M 7 3 C 6.448 3 6 3.448 6 4 C 6 4.552 6.448 5 7 5 L 11 5 C 11.552 5 12 4.552 12 4 C 12 3.448 11.552 3 11 3 L 7 3 z M 19 3 C 18.448 3 18 3.448 18 4 C 18 4.552 18.448 5 19 5 L 23 5 C 23.552 5 24 4.552 24 4 C 24 3.448 23.552 3 23 3 L 19 3 z M 6 7 C 5.448 7 5 7.448 5 8 L 5 11 C 3.895 11 3 11.895 3 13 L 3 22 L 13 22 L 13 15 L 17 15 L 17 22 L 27 22 L 27 13 C 27 11.895 26.105 11 25 11 L 25 8 C 25 7.448 24.552 7 24 7 L 18 7 C 17.448 7 17 7.448 17 8 L 17 11 L 13 11 L 13 8 C 13 7.448 12.552 7 12 7 L 6 7 z M 3 24 C 2.448 24 2 24.448 2 25 C 2 25.552 2.448 26 3 26 L 13 26 C 13.552 26 14 25.552 14 25 C 14 24.448 13.552 24 13 24 L 3 24 z M 17 24 C 16.448 24 16 24.448 16 25 C 16 25.552 16.448 26 17 26 L 27 26 C 27.552 26 28 25.552 28 25 C 28 24.448 27.552 24 27 24 L 17 24 z"></path></svg>
